<svg width="256" height="60" viewBox="0 0 256 60" fill="none" xmlns="http://www.w3.org/2000/svg">
<rect width="256" height="60" rx="30" fill="url(#paint0_linear_1334_293)"/>
<path d="M100.292 37V22.4545H103.367V34.4645H109.603V37H100.292ZM116.511 37.2131C115.408 37.2131 114.454 36.9787 113.649 36.5099C112.849 36.0365 112.231 35.3783 111.795 34.5355C111.36 33.688 111.142 32.7055 111.142 31.5881C111.142 30.4612 111.36 29.4763 111.795 28.6335C112.231 27.786 112.849 27.1278 113.649 26.6591C114.454 26.1856 115.408 25.9489 116.511 25.9489C117.615 25.9489 118.566 26.1856 119.366 26.6591C120.171 27.1278 120.792 27.786 121.227 28.6335C121.663 29.4763 121.881 30.4612 121.881 31.5881C121.881 32.7055 121.663 33.688 121.227 34.5355C120.792 35.3783 120.171 36.0365 119.366 36.5099C118.566 36.9787 117.615 37.2131 116.511 37.2131ZM116.526 34.8693C117.027 34.8693 117.446 34.7273 117.783 34.4432C118.119 34.1544 118.372 33.7614 118.543 33.2642C118.718 32.767 118.805 32.2012 118.805 31.5668C118.805 30.9323 118.718 30.3665 118.543 29.8693C118.372 29.3722 118.119 28.9792 117.783 28.6903C117.446 28.4015 117.027 28.2571 116.526 28.2571C116.019 28.2571 115.593 28.4015 115.247 28.6903C114.906 28.9792 114.648 29.3722 114.473 29.8693C114.303 30.3665 114.217 30.9323 114.217 31.5668C114.217 32.2012 114.303 32.767 114.473 33.2642C114.648 33.7614 114.906 34.1544 115.247 34.4432C115.593 34.7273 116.019 34.8693 116.526 34.8693ZM128.763 41.3182C127.783 41.3182 126.942 41.1832 126.241 40.9134C125.545 40.6482 124.991 40.286 124.58 39.8267C124.168 39.3674 123.9 38.8513 123.777 38.2784L126.575 37.902C126.661 38.1198 126.795 38.3234 126.98 38.5128C127.165 38.7022 127.409 38.8537 127.712 38.9673C128.019 39.0857 128.393 39.1449 128.834 39.1449C129.492 39.1449 130.034 38.9839 130.46 38.6619C130.891 38.3447 131.107 37.812 131.107 37.0639V35.0682H130.979C130.846 35.3712 130.647 35.6577 130.382 35.9276C130.117 36.1974 129.776 36.4176 129.359 36.5881C128.943 36.7585 128.446 36.8438 127.868 36.8438C127.049 36.8438 126.303 36.6544 125.631 36.2756C124.963 35.892 124.43 35.3073 124.033 34.5213C123.64 33.7306 123.443 32.7315 123.443 31.5241C123.443 30.2884 123.644 29.2562 124.047 28.4276C124.449 27.599 124.984 26.9787 125.652 26.5668C126.324 26.1548 127.061 25.9489 127.861 25.9489C128.472 25.9489 128.983 26.053 129.395 26.2614C129.807 26.465 130.138 26.7206 130.389 27.0284C130.645 27.3314 130.841 27.6297 130.979 27.9233H131.092V26.0909H134.097V37.1065C134.097 38.0346 133.869 38.8111 133.415 39.4361C132.96 40.0611 132.33 40.5298 131.526 40.8423C130.725 41.1596 129.804 41.3182 128.763 41.3182ZM128.827 34.571C129.314 34.571 129.726 34.4503 130.062 34.2088C130.403 33.9626 130.664 33.6122 130.844 33.1577C131.028 32.6984 131.121 32.1491 131.121 31.5099C131.121 30.8707 131.031 30.3168 130.851 29.848C130.671 29.3745 130.411 29.0076 130.07 28.7472C129.729 28.4867 129.314 28.3565 128.827 28.3565C128.33 28.3565 127.911 28.4915 127.57 28.7614C127.229 29.0265 126.971 29.3958 126.795 29.8693C126.62 30.3428 126.533 30.8897 126.533 31.5099C126.533 32.1397 126.62 32.6842 126.795 33.1435C126.975 33.598 127.233 33.9508 127.57 34.2017C127.911 34.4479 128.33 34.571 128.827 34.571ZM144.265 22.4545V37H141.19V22.4545H144.265ZM149.764 30.6932V37H146.739V26.0909H149.622V28.0156H149.75C149.991 27.3812 150.396 26.8793 150.964 26.5099C151.533 26.1359 152.222 25.9489 153.031 25.9489C153.789 25.9489 154.449 26.1146 155.013 26.446C155.576 26.7775 156.014 27.2509 156.327 27.8665C156.639 28.4773 156.795 29.2064 156.795 30.054V37H153.77V30.5938C153.775 29.9261 153.604 29.4053 153.259 29.0312C152.913 28.6525 152.437 28.4631 151.831 28.4631C151.424 28.4631 151.064 28.5507 150.751 28.7259C150.444 28.901 150.202 29.1567 150.027 29.4929C149.857 29.8243 149.769 30.2244 149.764 30.6932Z" fill="white"/>
<defs>
<linearGradient id="paint0_linear_1334_293" x1="256" y1="20.5" x2="8.50001" y2="43.5" gradientUnits="userSpaceOnUse">
<stop stop-color="#FF9A7A"/>
<stop offset="1" stop-color="#FF6363"/>
</linearGradient>
</defs>
</svg>
