<svg width="256" height="60" viewBox="0 0 256 60" fill="none" xmlns="http://www.w3.org/2000/svg">
<rect width="256" height="60" rx="30" fill="url(#paint0_linear_1334_216)"/>
<path d="M99.3912 26.6378C99.3343 26.0649 99.0905 25.6198 98.6596 25.3026C98.2288 24.9853 97.644 24.8267 96.9054 24.8267C96.4035 24.8267 95.9797 24.8977 95.6341 25.0398C95.2884 25.1771 95.0233 25.3688 94.8386 25.6151C94.6587 25.8613 94.5687 26.1406 94.5687 26.4531C94.5592 26.7135 94.6137 26.9408 94.7321 27.1349C94.8552 27.3291 95.0233 27.4972 95.2363 27.6392C95.4494 27.7765 95.6956 27.8973 95.975 28.0014C96.2543 28.1009 96.5526 28.1861 96.8699 28.2571L98.1767 28.5696C98.8111 28.7116 99.3935 28.901 99.9238 29.1378C100.454 29.3745 100.913 29.6657 101.302 30.0114C101.69 30.357 101.991 30.7642 102.204 31.233C102.421 31.7017 102.533 32.2391 102.537 32.8452C102.533 33.7353 102.305 34.5071 101.856 35.1605C101.411 35.8092 100.767 36.3134 99.9238 36.6733C99.0858 37.0284 98.0749 37.206 96.8912 37.206C95.7169 37.206 94.6942 37.026 93.823 36.6662C92.9565 36.3063 92.2794 35.7737 91.7917 35.0682C91.3088 34.358 91.0555 33.4796 91.0318 32.4332H94.0076C94.0408 32.9209 94.1805 33.3281 94.4267 33.6548C94.6776 33.9768 95.0114 34.2206 95.4281 34.3864C95.8495 34.5473 96.3253 34.6278 96.8556 34.6278C97.3765 34.6278 97.8287 34.5521 98.2122 34.4006C98.6004 34.2491 98.9011 34.0384 99.1142 33.7685C99.3272 33.4986 99.4338 33.1884 99.4338 32.8381C99.4338 32.5114 99.3367 32.2367 99.1426 32.0142C98.9532 31.7917 98.6738 31.6023 98.3045 31.446C97.9399 31.2898 97.4925 31.1477 96.9622 31.0199L95.3784 30.6222C94.152 30.3239 93.1838 29.8575 92.4735 29.223C91.7633 28.5885 91.4106 27.7339 91.4153 26.6591C91.4106 25.7784 91.6449 25.009 92.1184 24.3509C92.5967 23.6927 93.2524 23.179 94.0858 22.8097C94.9191 22.4403 95.8661 22.2557 96.9267 22.2557C98.0062 22.2557 98.9484 22.4403 99.7534 22.8097C100.563 23.179 101.193 23.6927 101.643 24.3509C102.092 25.009 102.324 25.7713 102.339 26.6378H99.3912ZM104.549 37V26.0909H107.575V37H104.549ZM106.069 24.6847C105.619 24.6847 105.233 24.5355 104.911 24.2372C104.594 23.9342 104.436 23.572 104.436 23.1506C104.436 22.7339 104.594 22.3764 104.911 22.0781C105.233 21.7751 105.619 21.6236 106.069 21.6236C106.519 21.6236 106.902 21.7751 107.22 22.0781C107.542 22.3764 107.703 22.7339 107.703 23.1506C107.703 23.572 107.542 23.9342 107.22 24.2372C106.902 24.5355 106.519 24.6847 106.069 24.6847ZM114.913 41.3182C113.933 41.3182 113.093 41.1832 112.392 40.9134C111.696 40.6482 111.142 40.286 110.73 39.8267C110.318 39.3674 110.05 38.8513 109.927 38.2784L112.726 37.902C112.811 38.1198 112.946 38.3234 113.131 38.5128C113.315 38.7022 113.559 38.8537 113.862 38.9673C114.17 39.0857 114.544 39.1449 114.984 39.1449C115.642 39.1449 116.184 38.9839 116.611 38.6619C117.041 38.3447 117.257 37.812 117.257 37.0639V35.0682H117.129C116.997 35.3712 116.798 35.6577 116.532 35.9276C116.267 36.1974 115.926 36.4176 115.51 36.5881C115.093 36.7585 114.596 36.8438 114.018 36.8438C113.199 36.8438 112.453 36.6544 111.781 36.2756C111.113 35.892 110.581 35.3073 110.183 34.5213C109.79 33.7306 109.594 32.7315 109.594 31.5241C109.594 30.2884 109.795 29.2562 110.197 28.4276C110.6 27.599 111.135 26.9787 111.802 26.5668C112.475 26.1548 113.211 25.9489 114.011 25.9489C114.622 25.9489 115.133 26.053 115.545 26.2614C115.957 26.465 116.289 26.7206 116.54 27.0284C116.795 27.3314 116.992 27.6297 117.129 27.9233H117.243V26.0909H120.247V37.1065C120.247 38.0346 120.02 38.8111 119.565 39.4361C119.111 40.0611 118.481 40.5298 117.676 40.8423C116.876 41.1596 115.955 41.3182 114.913 41.3182ZM114.977 34.571C115.465 34.571 115.877 34.4503 116.213 34.2088C116.554 33.9626 116.814 33.6122 116.994 33.1577C117.179 32.6984 117.271 32.1491 117.271 31.5099C117.271 30.8707 117.181 30.3168 117.001 29.848C116.821 29.3745 116.561 29.0076 116.22 28.7472C115.879 28.4867 115.465 28.3565 114.977 28.3565C114.48 28.3565 114.061 28.4915 113.72 28.7614C113.379 29.0265 113.121 29.3958 112.946 29.8693C112.771 30.3428 112.683 30.8897 112.683 31.5099C112.683 32.1397 112.771 32.6842 112.946 33.1435C113.126 33.598 113.384 33.9508 113.72 34.2017C114.061 34.4479 114.48 34.571 114.977 34.571ZM125.68 30.6932V37H122.655V26.0909H125.538V28.0156H125.666C125.907 27.3812 126.312 26.8793 126.881 26.5099C127.449 26.1359 128.138 25.9489 128.947 25.9489C129.705 25.9489 130.365 26.1146 130.929 26.446C131.492 26.7775 131.93 27.2509 132.243 27.8665C132.555 28.4773 132.711 29.2064 132.711 30.054V37H129.686V30.5938C129.691 29.9261 129.52 29.4053 129.175 29.0312C128.829 28.6525 128.353 28.4631 127.747 28.4631C127.34 28.4631 126.98 28.5507 126.667 28.7259C126.36 28.901 126.118 29.1567 125.943 29.4929C125.773 29.8243 125.685 30.2244 125.68 30.6932ZM148.766 22.4545H151.841V31.9006C151.841 32.9612 151.588 33.8892 151.081 34.6847C150.58 35.4801 149.876 36.1004 148.972 36.5455C148.068 36.9858 147.014 37.206 145.812 37.206C144.604 37.206 143.548 36.9858 142.644 36.5455C141.74 36.1004 141.037 35.4801 140.535 34.6847C140.033 33.8892 139.782 32.9612 139.782 31.9006V22.4545H142.857V31.6378C142.857 32.1918 142.978 32.6842 143.219 33.1151C143.465 33.5459 143.811 33.8845 144.256 34.1307C144.701 34.3769 145.22 34.5 145.812 34.5C146.408 34.5 146.927 34.3769 147.367 34.1307C147.812 33.8845 148.155 33.5459 148.397 33.1151C148.643 32.6842 148.766 32.1918 148.766 31.6378V22.4545ZM154.315 41.0909V26.0909H157.298V27.9233H157.433C157.565 27.6297 157.757 27.3314 158.008 27.0284C158.264 26.7206 158.595 26.465 159.002 26.2614C159.414 26.053 159.926 25.9489 160.536 25.9489C161.332 25.9489 162.066 26.1572 162.738 26.5739C163.41 26.9858 163.948 27.6084 164.35 28.4418C164.753 29.2704 164.954 30.3097 164.954 31.5597C164.954 32.7765 164.758 33.804 164.365 34.642C163.976 35.4754 163.446 36.1075 162.774 36.5384C162.106 36.9645 161.358 37.1776 160.529 37.1776C159.942 37.1776 159.443 37.0805 159.031 36.8864C158.624 36.6922 158.29 36.4484 158.029 36.1548C157.769 35.8565 157.57 35.5559 157.433 35.2528H157.34V41.0909H154.315ZM157.276 31.5455C157.276 32.1941 157.366 32.7599 157.546 33.2429C157.726 33.7259 157.987 34.1023 158.328 34.3722C158.669 34.6373 159.083 34.7699 159.57 34.7699C160.063 34.7699 160.48 34.6349 160.82 34.3651C161.161 34.0904 161.419 33.7116 161.595 33.2287C161.775 32.741 161.865 32.1799 161.865 31.5455C161.865 30.9157 161.777 30.3617 161.602 29.8835C161.427 29.4053 161.169 29.0312 160.828 28.7614C160.487 28.4915 160.068 28.3565 159.57 28.3565C159.078 28.3565 158.661 28.4867 158.32 28.7472C157.984 29.0076 157.726 29.3769 157.546 29.8551C157.366 30.3333 157.276 30.8968 157.276 31.5455Z" fill="white"/>
<defs>
<linearGradient id="paint0_linear_1334_216" x1="256" y1="20.5" x2="8.50001" y2="43.5" gradientUnits="userSpaceOnUse">
<stop stop-color="#FF9A7A"/>
<stop offset="1" stop-color="#FF6363"/>
</linearGradient>
</defs>
</svg>
